<?xml version="1.0" encoding="UTF-8" standalone="no"?><!DOCTYPE svg PUBLIC "-//W3C//DTD SVG 1.1//EN" "http://www.w3.org/Graphics/SVG/1.1/DTD/svg11.dtd"><!-- Generated by graphviz version 2.40.1 (20161225.0304)
 --><!-- Title: G Pages: 1 --><svg xmlns="http://www.w3.org/2000/svg" xmlns:xlink="http://www.w3.org/1999/xlink" width="1350pt" height="332pt" viewBox="0.00 0.00 1350.20 332.00">
<g id="graph0" class="graph" transform="scale(1 1) rotate(0) translate(4 328)">
<title>G</title>
<polygon fill="#ffffff" stroke="transparent" points="-4,4 -4,-328 1346.1992,-328 1346.1992,4 -4,4"/>
<!-- i0 -->
<g id="node1" class="node">
<title>i0</title>
<ellipse fill="#00ff00" stroke="#000000" cx="187.5996" cy="-306" rx="27" ry="18"/>
<text text-anchor="middle" x="187.5996" y="-301.8" font-family="Times,serif" font-size="14.00" fill="#000000">i0</text>
</g>
<!-- g0 -->
<g id="node24" class="node">
<title>g0</title>
<polygon fill="#add8e6" stroke="#000000" points="375.299,-252 261.9002,-252 261.9002,-216 375.299,-216 375.299,-252"/>
<text text-anchor="middle" x="318.5996" y="-229.8" font-family="Times,serif" font-size="14.00" fill="#000000">g0_Deterministic</text>
</g>
<!-- i0&#45;&gt;g0 -->
<g id="edge3" class="edge">
<title>i0-&gt;g0</title>
<path fill="none" stroke="#000000" d="M208.647,-294.432C227.0358,-284.3252 254.2751,-269.3539 277.0404,-256.8417"/>
<polygon fill="#000000" stroke="#000000" points="278.7608,-259.89 285.8385,-252.0061 275.3891,-253.7555 278.7608,-259.89"/>
</g>
<!-- g1 -->
<g id="node25" class="node">
<title>g1</title>
<polygon fill="#add8e6" stroke="#000000" points="113.299,-252 -.0998,-252 -.0998,-216 113.299,-216 113.299,-252"/>
<text text-anchor="middle" x="56.5996" y="-229.8" font-family="Times,serif" font-size="14.00" fill="#000000">g1_Deterministic</text>
</g>
<!-- i0&#45;&gt;g1 -->
<g id="edge8" class="edge">
<title>i0-&gt;g1</title>
<path fill="none" stroke="#000000" d="M164.8424,-296.1397C144.781,-286.1436 115.468,-270.3137 92.3383,-257.1334"/>
<polygon fill="#000000" stroke="#000000" points="93.9039,-253.9963 83.4904,-252.0445 90.4139,-260.0642 93.9039,-253.9963"/>
</g>
<!-- i0&#45;&gt;g1 -->
<g id="edge10" class="edge">
<title>i0-&gt;g1</title>
<path fill="none" stroke="#000000" d="M168.9363,-292.7941C152.0632,-282.732 126.7337,-268.634 104.3472,-256.7655"/>
<polygon fill="#000000" stroke="#000000" points="105.7714,-253.56 95.2916,-252.0032 102.5132,-259.7555 105.7714,-253.56"/>
</g>
<!-- g8 -->
<g id="node32" class="node">
<title>g8</title>
<polygon fill="#add8e6" stroke="#000000" points="244.299,-252 130.9002,-252 130.9002,-216 244.299,-216 244.299,-252"/>
<text text-anchor="middle" x="187.5996" y="-229.8" font-family="Times,serif" font-size="14.00" fill="#000000">g8_Deterministic</text>
</g>
<!-- i0&#45;&gt;g8 -->
<g id="edge40" class="edge">
<title>i0-&gt;g8</title>
<path fill="none" stroke="#000000" d="M181.6839,-288.2022C180.9001,-280.3864 180.6685,-271.0171 180.9894,-262.2836"/>
<polygon fill="#000000" stroke="#000000" points="184.4956,-262.2999 181.6546,-252.0931 177.5105,-261.8439 184.4956,-262.2999"/>
</g>
<!-- i0&#45;&gt;g8 -->
<g id="edge42" class="edge">
<title>i0-&gt;g8</title>
<path fill="none" stroke="#000000" d="M193.5153,-288.2022C194.2991,-280.3864 194.5307,-271.0171 194.2098,-262.2836"/>
<polygon fill="#000000" stroke="#000000" points="197.6887,-261.8439 193.5446,-252.0931 190.7036,-262.2999 197.6887,-261.8439"/>
</g>
<!-- i1 -->
<g id="node2" class="node">
<title>i1</title>
<ellipse fill="#00ff00" stroke="#000000" cx="580.5996" cy="-306" rx="27" ry="18"/>
<text text-anchor="middle" x="580.5996" y="-301.8" font-family="Times,serif" font-size="14.00" fill="#000000">i1</text>
</g>
<!-- i1&#45;&gt;g0 -->
<g id="edge4" class="edge">
<title>i1-&gt;g0</title>
<path fill="none" stroke="#000000" d="M555.4047,-299.1164C519.6917,-289.3542 452.0422,-270.8443 385.1738,-252.4309"/>
<polygon fill="#000000" stroke="#000000" points="385.8879,-248.9973 375.3175,-249.7159 384.0289,-255.7459 385.8879,-248.9973"/>
</g>
<!-- g2 -->
<g id="node26" class="node">
<title>g2</title>
<polygon fill="#add8e6" stroke="#000000" points="506.299,-252 392.9002,-252 392.9002,-216 506.299,-216 506.299,-252"/>
<text text-anchor="middle" x="449.5996" y="-229.8" font-family="Times,serif" font-size="14.00" fill="#000000">g2_Deterministic</text>
</g>
<!-- i1&#45;&gt;g2 -->
<g id="edge12" class="edge">
<title>i1-&gt;g2</title>
<path fill="none" stroke="#000000" d="M559.5522,-294.432C541.1634,-284.3252 513.9241,-269.3539 491.1588,-256.8417"/>
<polygon fill="#000000" stroke="#000000" points="492.8101,-253.7555 482.3607,-252.0061 489.4384,-259.89 492.8101,-253.7555"/>
</g>
<!-- g3 -->
<g id="node27" class="node">
<title>g3</title>
<polygon fill="#add8e6" stroke="#000000" points="907.299,-252 793.9002,-252 793.9002,-216 907.299,-216 907.299,-252"/>
<text text-anchor="middle" x="850.5996" y="-229.8" font-family="Times,serif" font-size="14.00" fill="#000000">g3_Deterministic</text>
</g>
<!-- i1&#45;&gt;g3 -->
<g id="edge19" class="edge">
<title>i1-&gt;g3</title>
<path fill="none" stroke="#000000" d="M605.7819,-299.3367C652.6717,-286.9293 751.0425,-260.898 783.964,-252.144"/>
<polygon fill="#000000" stroke="#000000" points="784.9652,-255.4994 793.7252,-249.5402 783.161,-248.7359 784.9652,-255.4994"/>
</g>
<!-- g9 -->
<g id="node33" class="node">
<title>g9</title>
<polygon fill="#add8e6" stroke="#000000" points="637.299,-252 523.9002,-252 523.9002,-216 637.299,-216 637.299,-252"/>
<text text-anchor="middle" x="580.5996" y="-229.8" font-family="Times,serif" font-size="14.00" fill="#000000">g9_Deterministic</text>
</g>
<!-- i1&#45;&gt;g9 -->
<g id="edge44" class="edge">
<title>i1-&gt;g9</title>
<path fill="none" stroke="#000000" d="M580.5996,-287.8314C580.5996,-280.131 580.5996,-270.9743 580.5996,-262.4166"/>
<polygon fill="#000000" stroke="#000000" points="584.0997,-262.4132 580.5996,-252.4133 577.0997,-262.4133 584.0997,-262.4132"/>
</g>
<!-- g10 -->
<g id="node34" class="node">
<title>g10</title>
<polygon fill="#add8e6" stroke="#000000" points="775.799,-252 655.4002,-252 655.4002,-216 775.799,-216 775.799,-252"/>
<text text-anchor="middle" x="715.5996" y="-229.8" font-family="Times,serif" font-size="14.00" fill="#000000">g10_Deterministic</text>
</g>
<!-- i1&#45;&gt;g10 -->
<g id="edge49" class="edge">
<title>i1-&gt;g10</title>
<path fill="none" stroke="#000000" d="M601.6934,-294.75C620.6971,-284.6146 649.2125,-269.4064 672.9575,-256.7424"/>
<polygon fill="#000000" stroke="#000000" points="674.6182,-259.8235 681.7947,-252.0293 671.3241,-253.647 674.6182,-259.8235"/>
</g>
<!-- i2 -->
<g id="node3" class="node">
<title>i2</title>
<ellipse fill="#00ff00" stroke="#000000" cx="478.5996" cy="-306" rx="27" ry="18"/>
<text text-anchor="middle" x="478.5996" y="-301.8" font-family="Times,serif" font-size="14.00" fill="#000000">i2</text>
</g>
<!-- i2&#45;&gt;g0 -->
<g id="edge1" class="edge">
<title>i2-&gt;g0</title>
<path fill="none" stroke="#000000" d="M456.0149,-295.8369C433.2404,-285.5883 397.3449,-269.4354 367.952,-256.2086"/>
<polygon fill="#000000" stroke="#000000" points="369.2178,-252.9402 358.6623,-252.0282 366.3452,-259.3236 369.2178,-252.9402"/>
</g>
<!-- i2&#45;&gt;g2 -->
<g id="edge13" class="edge">
<title>i2-&gt;g2</title>
<path fill="none" stroke="#000000" d="M471.5795,-288.5708C468.305,-280.4409 464.3296,-270.571 460.6648,-261.4722"/>
<polygon fill="#000000" stroke="#000000" points="463.8406,-259.9888 456.8579,-252.0206 457.3475,-262.6041 463.8406,-259.9888"/>
</g>
<!-- i2&#45;&gt;g9 -->
<g id="edge45" class="edge">
<title>i2-&gt;g9</title>
<path fill="none" stroke="#000000" d="M497.308,-292.7941C511.1191,-283.045 530.2976,-269.5073 546.7703,-257.8795"/>
<polygon fill="#000000" stroke="#000000" points="548.9438,-260.6295 555.0951,-252.0032 544.907,-254.9107 548.9438,-260.6295"/>
</g>
<!-- i2&#45;&gt;g10 -->
<g id="edge50" class="edge">
<title>i2-&gt;g10</title>
<path fill="none" stroke="#000000" d="M503.5148,-298.4308C537.0928,-288.2299 598.1948,-269.6673 646.219,-255.0777"/>
<polygon fill="#000000" stroke="#000000" points="647.3943,-258.3786 655.9451,-252.1229 645.3595,-251.6809 647.3943,-258.3786"/>
</g>
<!-- i3 -->
<g id="node4" class="node">
<title>i3</title>
<ellipse fill="#00ff00" stroke="#000000" cx="1053.5996" cy="-306" rx="27" ry="18"/>
<text text-anchor="middle" x="1053.5996" y="-301.8" font-family="Times,serif" font-size="14.00" fill="#000000">i3</text>
</g>
<!-- i4 -->
<g id="node5" class="node">
<title>i4</title>
<ellipse fill="#00ff00" stroke="#000000" cx="684.5996" cy="-306" rx="27" ry="18"/>
<text text-anchor="middle" x="684.5996" y="-301.8" font-family="Times,serif" font-size="14.00" fill="#000000">i4</text>
</g>
<!-- i4&#45;&gt;g2 -->
<g id="edge14" class="edge">
<title>i4-&gt;g2</title>
<path fill="none" stroke="#000000" d="M659.8946,-298.4308C626.0488,-288.061 564,-269.0503 516.0404,-254.3563"/>
<polygon fill="#000000" stroke="#000000" points="516.9292,-250.9681 506.3426,-251.3851 514.8786,-257.661 516.9292,-250.9681"/>
</g>
<!-- i4&#45;&gt;g3 -->
<g id="edge18" class="edge">
<title>i4-&gt;g3</title>
<path fill="none" stroke="#000000" d="M707.3331,-296.1397C730.9915,-285.8782 768.8237,-269.4691 799.6713,-256.0894"/>
<polygon fill="#000000" stroke="#000000" points="801.2155,-259.2347 808.997,-252.0445 798.43,-252.8128 801.2155,-259.2347"/>
</g>
<!-- i4&#45;&gt;g9 -->
<g id="edge46" class="edge">
<title>i4-&gt;g9</title>
<path fill="none" stroke="#000000" d="M665.5244,-292.7941C651.4424,-283.045 631.8879,-269.5073 615.0922,-257.8795"/>
<polygon fill="#000000" stroke="#000000" points="616.8184,-254.8177 606.6042,-252.0032 612.8339,-260.573 616.8184,-254.8177"/>
</g>
<!-- i4&#45;&gt;g10 -->
<g id="edge51" class="edge">
<title>i4-&gt;g10</title>
<path fill="none" stroke="#000000" d="M692.1038,-288.5708C695.6042,-280.4409 699.8538,-270.571 703.7713,-261.4722"/>
<polygon fill="#000000" stroke="#000000" points="707.1008,-262.5896 707.8407,-252.0206 700.6714,-259.8213 707.1008,-262.5896"/>
</g>
<!-- i5 -->
<g id="node6" class="node">
<title>i5</title>
<ellipse fill="#00ff00" stroke="#000000" cx="86.5996" cy="-306" rx="27" ry="18"/>
<text text-anchor="middle" x="86.5996" y="-301.8" font-family="Times,serif" font-size="14.00" fill="#000000">i5</text>
</g>
<!-- i5&#45;&gt;g1 -->
<g id="edge9" class="edge">
<title>i5-&gt;g1</title>
<path fill="none" stroke="#000000" d="M79.3374,-288.5708C75.95,-280.4409 71.8375,-270.571 68.0464,-261.4722"/>
<polygon fill="#000000" stroke="#000000" points="71.1852,-259.9052 64.1082,-252.0206 64.7236,-262.5975 71.1852,-259.9052"/>
</g>
<!-- i5&#45;&gt;g8 -->
<g id="edge41" class="edge">
<title>i5-&gt;g8</title>
<path fill="none" stroke="#000000" d="M105.1246,-292.7941C118.8003,-283.045 137.7907,-269.5073 154.1019,-257.8795"/>
<polygon fill="#000000" stroke="#000000" points="156.234,-260.658 162.3451,-252.0032 152.1706,-254.958 156.234,-260.658"/>
</g>
<!-- i6 -->
<g id="node7" class="node">
<title>i6</title>
<ellipse fill="#00ff00" stroke="#000000" cx="850.5996" cy="-306" rx="27" ry="18"/>
<text text-anchor="middle" x="850.5996" y="-301.8" font-family="Times,serif" font-size="14.00" fill="#000000">i6</text>
</g>
<!-- i6&#45;&gt;g3 -->
<g id="edge17" class="edge">
<title>i6-&gt;g3</title>
<path fill="none" stroke="#000000" d="M850.5996,-287.8314C850.5996,-280.131 850.5996,-270.9743 850.5996,-262.4166"/>
<polygon fill="#000000" stroke="#000000" points="854.0997,-262.4132 850.5996,-252.4133 847.0997,-262.4133 854.0997,-262.4132"/>
</g>
<!-- i7 -->
<g id="node8" class="node">
<title>i7</title>
<ellipse fill="#00ff00" stroke="#000000" cx="981.5996" cy="-306" rx="27" ry="18"/>
<text text-anchor="middle" x="981.5996" y="-301.8" font-family="Times,serif" font-size="14.00" fill="#000000">i7</text>
</g>
<!-- i7&#45;&gt;g0 -->
<g id="edge2" class="edge">
<title>i7-&gt;g0</title>
<path fill="none" stroke="#000000" d="M955.9238,-300.2999C936.8813,-296.2766 910.2373,-291.0747 886.5996,-288 667.6003,-259.5131 606.2548,-289.1998 385.4774,-252.1497"/>
<polygon fill="#000000" stroke="#000000" points="385.9704,-248.6833 375.5243,-250.4526 384.7937,-255.5837 385.9704,-248.6833"/>
</g>
<!-- g5 -->
<g id="node29" class="node">
<title>g5</title>
<polygon fill="#add8e6" stroke="#000000" points="1169.299,-252 1055.9002,-252 1055.9002,-216 1169.299,-216 1169.299,-252"/>
<text text-anchor="middle" x="1112.5996" y="-229.8" font-family="Times,serif" font-size="14.00" fill="#000000">g5_Deterministic</text>
</g>
<!-- i7&#45;&gt;g5 -->
<g id="edge26" class="edge">
<title>i7-&gt;g5</title>
<path fill="none" stroke="#000000" d="M1002.647,-294.432C1021.0358,-284.3252 1048.2751,-269.3539 1071.0404,-256.8417"/>
<polygon fill="#000000" stroke="#000000" points="1072.7608,-259.89 1079.8385,-252.0061 1069.3891,-253.7555 1072.7608,-259.89"/>
</g>
<!-- g7 -->
<g id="node31" class="node">
<title>g7</title>
<polygon fill="#add8e6" stroke="#000000" points="1038.299,-252 924.9002,-252 924.9002,-216 1038.299,-216 1038.299,-252"/>
<text text-anchor="middle" x="981.5996" y="-229.8" font-family="Times,serif" font-size="14.00" fill="#000000">g7_Deterministic</text>
</g>
<!-- i7&#45;&gt;g7 -->
<g id="edge35" class="edge">
<title>i7-&gt;g7</title>
<path fill="none" stroke="#000000" d="M981.5996,-287.8314C981.5996,-280.131 981.5996,-270.9743 981.5996,-262.4166"/>
<polygon fill="#000000" stroke="#000000" points="985.0997,-262.4132 981.5996,-252.4133 978.0997,-262.4133 985.0997,-262.4132"/>
</g>
<!-- i8 -->
<g id="node9" class="node">
<title>i8</title>
<ellipse fill="#00ff00" stroke="#000000" cx="1154.5996" cy="-162" rx="27" ry="18"/>
<text text-anchor="middle" x="1154.5996" y="-157.8" font-family="Times,serif" font-size="14.00" fill="#000000">i8</text>
</g>
<!-- g4 -->
<g id="node28" class="node">
<title>g4</title>
<polygon fill="#add8e6" stroke="#000000" points="1342.299,-108 1228.9002,-108 1228.9002,-72 1342.299,-72 1342.299,-108"/>
<text text-anchor="middle" x="1285.5996" y="-85.8" font-family="Times,serif" font-size="14.00" fill="#000000">g4_Deterministic</text>
</g>
<!-- i8&#45;&gt;g4 -->
<g id="edge23" class="edge">
<title>i8-&gt;g4</title>
<path fill="none" stroke="#000000" d="M1175.647,-150.432C1194.0358,-140.3252 1221.2751,-125.3539 1244.0404,-112.8417"/>
<polygon fill="#000000" stroke="#000000" points="1245.7608,-115.89 1252.8385,-108.0061 1242.3891,-109.7555 1245.7608,-115.89"/>
</g>
<!-- g6 -->
<g id="node30" class="node">
<title>g6</title>
<polygon fill="#add8e6" stroke="#000000" points="1211.299,-108 1097.9002,-108 1097.9002,-72 1211.299,-72 1211.299,-108"/>
<text text-anchor="middle" x="1154.5996" y="-85.8" font-family="Times,serif" font-size="14.00" fill="#000000">g6_Deterministic</text>
</g>
<!-- i8&#45;&gt;g6 -->
<g id="edge32" class="edge">
<title>i8-&gt;g6</title>
<path fill="none" stroke="#000000" d="M1154.5996,-143.8314C1154.5996,-136.131 1154.5996,-126.9743 1154.5996,-118.4166"/>
<polygon fill="#000000" stroke="#000000" points="1158.0997,-118.4132 1154.5996,-108.4133 1151.0997,-118.4133 1158.0997,-118.4132"/>
</g>
<!-- i9 -->
<g id="node10" class="node">
<title>i9</title>
<ellipse fill="#00ff00" stroke="#000000" cx="1226.5996" cy="-162" rx="27" ry="18"/>
<text text-anchor="middle" x="1226.5996" y="-157.8" font-family="Times,serif" font-size="14.00" fill="#000000">i9</text>
</g>
<!-- i9&#45;&gt;g4 -->
<g id="edge22" class="edge">
<title>i9-&gt;g4</title>
<path fill="none" stroke="#000000" d="M1239.6936,-146.0209C1246.9263,-137.1945 1256.0883,-126.0138 1264.3216,-115.9664"/>
<polygon fill="#000000" stroke="#000000" points="1267.0398,-118.1713 1270.6709,-108.2181 1261.6255,-113.7345 1267.0398,-118.1713"/>
</g>
<!-- i9&#45;&gt;g6 -->
<g id="edge31" class="edge">
<title>i9-&gt;g6</title>
<path fill="none" stroke="#000000" d="M1211.3303,-146.7307C1202.2288,-137.6292 1190.4457,-125.8461 1179.9784,-115.3788"/>
<polygon fill="#000000" stroke="#000000" points="1182.1923,-112.6429 1172.6463,-108.0467 1177.2425,-117.5927 1182.1923,-112.6429"/>
</g>
<!-- i10 -->
<g id="node11" class="node">
<title>i10</title>
<ellipse fill="#00ff00" stroke="#000000" cx="1298.5996" cy="-162" rx="27" ry="18"/>
<text text-anchor="middle" x="1298.5996" y="-157.8" font-family="Times,serif" font-size="14.00" fill="#000000">i10</text>
</g>
<!-- i10&#45;&gt;g4 -->
<g id="edge21" class="edge">
<title>i10-&gt;g4</title>
<path fill="none" stroke="#000000" d="M1295.3192,-143.8314C1293.9288,-136.131 1292.2755,-126.9743 1290.7304,-118.4166"/>
<polygon fill="#000000" stroke="#000000" points="1294.1454,-117.6322 1288.9242,-108.4133 1287.2568,-118.8761 1294.1454,-117.6322"/>
</g>
<!-- i10&#45;&gt;g6 -->
<g id="edge30" class="edge">
<title>i10-&gt;g6</title>
<path fill="none" stroke="#000000" d="M1276.7291,-151.0647C1256.4078,-140.9041 1225.51,-125.4552 1199.8776,-112.639"/>
<polygon fill="#000000" stroke="#000000" points="1201.2112,-109.3927 1190.7017,-108.051 1198.0807,-115.6537 1201.2112,-109.3927"/>
</g>
<!-- h0 -->
<g id="node12" class="node">
<title>h0</title>
<ellipse fill="#ffffff" stroke="#000000" cx="1082.5996" cy="-162" rx="27" ry="18"/>
<text text-anchor="middle" x="1082.5996" y="-157.8" font-family="Times,serif" font-size="14.00" fill="#000000">h0</text>
</g>
<!-- h1 -->
<g id="node13" class="node">
<title>h1</title>
<ellipse fill="#ffffff" stroke="#000000" cx="187.5996" cy="-162" rx="27" ry="18"/>
<text text-anchor="middle" x="187.5996" y="-157.8" font-family="Times,serif" font-size="14.00" fill="#000000">h1</text>
</g>
<!-- h1&#45;&gt;g6 -->
<g id="edge33" class="edge">
<title>h1-&gt;g6</title>
<path fill="none" stroke="#000000" d="M212.0923,-154.0236C224.4118,-150.3451 239.6536,-146.2944 253.5996,-144 414.1921,-117.5797 907.3631,-98.4824 1087.6776,-92.2186"/>
<polygon fill="#000000" stroke="#000000" points="1087.9471,-95.7114 1097.8203,-91.8683 1087.7055,-88.7156 1087.9471,-95.7114"/>
</g>
<!-- h2 -->
<g id="node14" class="node">
<title>h2</title>
<ellipse fill="#ffffff" stroke="#000000" cx="361.5996" cy="-162" rx="27" ry="18"/>
<text text-anchor="middle" x="361.5996" y="-157.8" font-family="Times,serif" font-size="14.00" fill="#000000">h2</text>
</g>
<!-- h3 -->
<g id="node15" class="node">
<title>h3</title>
<ellipse fill="#ffffff" stroke="#000000" cx="1285.5996" cy="-18" rx="27" ry="18"/>
<text text-anchor="middle" x="1285.5996" y="-13.8" font-family="Times,serif" font-size="14.00" fill="#000000">h3</text>
</g>
<!-- h4 -->
<g id="node16" class="node">
<title>h4</title>
<ellipse fill="#ffffff" stroke="#000000" cx="289.5996" cy="-162" rx="27" ry="18"/>
<text text-anchor="middle" x="289.5996" y="-157.8" font-family="Times,serif" font-size="14.00" fill="#000000">h4</text>
</g>
<!-- h5 -->
<g id="node17" class="node">
<title>h5</title>
<ellipse fill="#ffffff" stroke="#000000" cx="627.5996" cy="-162" rx="27" ry="18"/>
<text text-anchor="middle" x="627.5996" y="-157.8" font-family="Times,serif" font-size="14.00" fill="#000000">h5</text>
</g>
<!-- h6 -->
<g id="node18" class="node">
<title>h6</title>
<ellipse fill="#ffffff" stroke="#000000" cx="1010.5996" cy="-162" rx="27" ry="18"/>
<text text-anchor="middle" x="1010.5996" y="-157.8" font-family="Times,serif" font-size="14.00" fill="#000000">h6</text>
</g>
<!-- h7 -->
<g id="node19" class="node">
<title>h7</title>
<ellipse fill="#ffffff" stroke="#000000" cx="1125.5996" cy="-306" rx="27" ry="18"/>
<text text-anchor="middle" x="1125.5996" y="-301.8" font-family="Times,serif" font-size="14.00" fill="#000000">h7</text>
</g>
<!-- o0 -->
<g id="node20" class="node">
<title>o0</title>
<ellipse fill="#add8e6" stroke="#000000" cx="938.5996" cy="-162" rx="27" ry="18"/>
<text text-anchor="middle" x="938.5996" y="-157.8" font-family="Times,serif" font-size="14.00" fill="#000000">o0</text>
</g>
<!-- o1 -->
<g id="node21" class="node">
<title>o1</title>
<ellipse fill="#add8e6" stroke="#000000" cx="532.5996" cy="-162" rx="27" ry="18"/>
<text text-anchor="middle" x="532.5996" y="-157.8" font-family="Times,serif" font-size="14.00" fill="#000000">o1</text>
</g>
<!-- o2 -->
<g id="node22" class="node">
<title>o2</title>
<ellipse fill="#add8e6" stroke="#000000" cx="1184.5996" cy="-18" rx="27" ry="18"/>
<text text-anchor="middle" x="1184.5996" y="-13.8" font-family="Times,serif" font-size="14.00" fill="#000000">o2</text>
</g>
<!-- o3 -->
<g id="node23" class="node">
<title>o3</title>
<ellipse fill="#add8e6" stroke="#000000" cx="1197.5996" cy="-306" rx="27" ry="18"/>
<text text-anchor="middle" x="1197.5996" y="-301.8" font-family="Times,serif" font-size="14.00" fill="#000000">o3</text>
</g>
<!-- g0&#45;&gt;h2 -->
<g id="edge7" class="edge">
<title>g0-&gt;h2</title>
<path fill="none" stroke="#000000" d="M329.4503,-215.8314C334.5258,-207.3329 340.6605,-197.0608 346.2047,-187.7776"/>
<polygon fill="#000000" stroke="#000000" points="349.3683,-189.3063 351.4908,-178.9263 343.3585,-185.7171 349.3683,-189.3063"/>
</g>
<!-- g0&#45;&gt;h4 -->
<g id="edge6" class="edge">
<title>g0-&gt;h4</title>
<path fill="none" stroke="#000000" d="M311.2817,-215.8314C307.9793,-207.6323 304.012,-197.7824 300.3789,-188.7624"/>
<polygon fill="#000000" stroke="#000000" points="303.5978,-187.3859 296.6151,-179.4177 297.1047,-190.0012 303.5978,-187.3859"/>
</g>
<!-- g0&#45;&gt;o1 -->
<g id="edge5" class="edge">
<title>g0-&gt;o1</title>
<path fill="none" stroke="#000000" d="M372.3246,-215.9243C411.9323,-202.5983 464.6157,-184.8731 498.5721,-173.4485"/>
<polygon fill="#000000" stroke="#000000" points="500.1121,-176.6232 508.4739,-170.117 497.8799,-169.9887 500.1121,-176.6232"/>
</g>
<!-- g1&#45;&gt;h1 -->
<g id="edge11" class="edge">
<title>g1-&gt;h1</title>
<path fill="none" stroke="#000000" d="M89.6564,-215.8314C110.5584,-204.3432 137.3574,-189.614 157.6376,-178.4677"/>
<polygon fill="#000000" stroke="#000000" points="159.3744,-181.507 166.4521,-173.623 156.0027,-175.3725 159.3744,-181.507"/>
</g>
<!-- g2&#45;&gt;h5 -->
<g id="edge15" class="edge">
<title>g2-&gt;h5</title>
<path fill="none" stroke="#000000" d="M494.5165,-215.8314C525.84,-203.1612 566.9101,-186.5486 595.0943,-175.1482"/>
<polygon fill="#000000" stroke="#000000" points="596.531,-178.3426 604.4889,-171.3481 593.9061,-171.8534 596.531,-178.3426"/>
</g>
<!-- g2&#45;&gt;o1 -->
<g id="edge16" class="edge">
<title>g2-&gt;o1</title>
<path fill="none" stroke="#000000" d="M470.544,-215.8314C482.0156,-205.8801 496.2908,-193.4968 508.2564,-183.117"/>
<polygon fill="#000000" stroke="#000000" points="510.848,-185.5023 516.1084,-176.3056 506.2611,-180.2145 510.848,-185.5023"/>
</g>
<!-- g3&#45;&gt;o0 -->
<g id="edge20" class="edge">
<title>g3-&gt;o0</title>
<path fill="none" stroke="#000000" d="M872.8057,-215.8314C885.1689,-205.716 900.6032,-193.0879 913.4152,-182.6054"/>
<polygon fill="#000000" stroke="#000000" points="915.874,-185.1159 921.3972,-176.0747 911.4413,-179.6982 915.874,-185.1159"/>
</g>
<!-- g4&#45;&gt;h3 -->
<g id="edge25" class="edge">
<title>g4-&gt;h3</title>
<path fill="none" stroke="#000000" d="M1285.5996,-71.8314C1285.5996,-64.131 1285.5996,-54.9743 1285.5996,-46.4166"/>
<polygon fill="#000000" stroke="#000000" points="1289.0997,-46.4132 1285.5996,-36.4133 1282.0997,-46.4133 1289.0997,-46.4132"/>
</g>
<!-- g4&#45;&gt;o2 -->
<g id="edge24" class="edge">
<title>g4-&gt;o2</title>
<path fill="none" stroke="#000000" d="M1260.113,-71.8314C1245.2624,-61.2448 1226.5508,-47.9058 1211.4694,-37.1547"/>
<polygon fill="#000000" stroke="#000000" points="1213.2403,-34.1188 1203.0658,-31.164 1209.1769,-39.8188 1213.2403,-34.1188"/>
</g>
<!-- g5&#45;&gt;h0 -->
<g id="edge27" class="edge">
<title>g5-&gt;h0</title>
<path fill="none" stroke="#000000" d="M1105.0293,-215.8314C1101.6131,-207.6323 1097.509,-197.7824 1093.7506,-188.7624"/>
<polygon fill="#000000" stroke="#000000" points="1096.934,-187.3023 1089.857,-179.4177 1090.4724,-189.9947 1096.934,-187.3023"/>
</g>
<!-- g5&#45;&gt;h6 -->
<g id="edge28" class="edge">
<title>g5-&gt;h6</title>
<path fill="none" stroke="#000000" d="M1086.8607,-215.8314C1071.863,-205.2448 1052.9662,-191.9058 1037.7354,-181.1547"/>
<polygon fill="#000000" stroke="#000000" points="1039.4367,-178.0715 1029.2486,-175.164 1035.3999,-183.7903 1039.4367,-178.0715"/>
</g>
<!-- g5&#45;&gt;o0 -->
<g id="edge29" class="edge">
<title>g5-&gt;o0</title>
<path fill="none" stroke="#000000" d="M1063.2955,-215.9496C1036.7707,-205.9282 1003.6331,-192.907 974.5996,-180 972.8277,-179.2123 971.017,-178.3839 969.1966,-177.5328"/>
<polygon fill="#000000" stroke="#000000" points="970.6778,-174.3614 960.1499,-173.1724 967.6385,-180.6672 970.6778,-174.3614"/>
</g>
<!-- g6&#45;&gt;o2 -->
<g id="edge34" class="edge">
<title>g6-&gt;o2</title>
<path fill="none" stroke="#000000" d="M1162.1699,-71.8314C1165.5861,-63.6323 1169.6902,-53.7824 1173.4486,-44.7624"/>
<polygon fill="#000000" stroke="#000000" points="1176.7268,-45.9947 1177.3422,-35.4177 1170.2652,-43.3023 1176.7268,-45.9947"/>
</g>
<!-- g7&#45;&gt;h0 -->
<g id="edge37" class="edge">
<title>g7-&gt;h0</title>
<path fill="none" stroke="#000000" d="M1007.0862,-215.8314C1021.9368,-205.2448 1040.6484,-191.9058 1055.7298,-181.1547"/>
<polygon fill="#000000" stroke="#000000" points="1058.0223,-183.8188 1064.1334,-175.164 1053.9589,-178.1188 1058.0223,-183.8188"/>
</g>
<!-- g7&#45;&gt;h5 -->
<g id="edge36" class="edge">
<title>g7-&gt;h5</title>
<path fill="none" stroke="#000000" d="M924.9521,-218.0062C922.1333,-217.3067 919.3375,-216.6337 916.5996,-216 826.4365,-195.1325 719.0196,-176.7361 664.0179,-167.7782"/>
<polygon fill="#000000" stroke="#000000" points="664.4861,-164.3085 654.0553,-166.1657 663.3676,-171.2186 664.4861,-164.3085"/>
</g>
<!-- g7&#45;&gt;h6 -->
<g id="edge38" class="edge">
<title>g7-&gt;h6</title>
<path fill="none" stroke="#000000" d="M988.9175,-215.8314C992.2199,-207.6323 996.1872,-197.7824 999.8203,-188.7624"/>
<polygon fill="#000000" stroke="#000000" points="1003.0945,-190.0012 1003.5841,-179.4177 996.6014,-187.3859 1003.0945,-190.0012"/>
</g>
<!-- g7&#45;&gt;o0 -->
<g id="edge39" class="edge">
<title>g7-&gt;o0</title>
<path fill="none" stroke="#000000" d="M970.7489,-215.8314C965.6734,-207.3329 959.5387,-197.0608 953.9945,-187.7776"/>
<polygon fill="#000000" stroke="#000000" points="956.8407,-185.7171 948.7084,-178.9263 950.8309,-189.3063 956.8407,-185.7171"/>
</g>
<!-- g8&#45;&gt;h1 -->
<g id="edge43" class="edge">
<title>g8-&gt;h1</title>
<path fill="none" stroke="#000000" d="M187.5996,-215.8314C187.5996,-208.131 187.5996,-198.9743 187.5996,-190.4166"/>
<polygon fill="#000000" stroke="#000000" points="191.0997,-190.4132 187.5996,-180.4133 184.0997,-190.4133 191.0997,-190.4132"/>
</g>
<!-- g9&#45;&gt;h5 -->
<g id="edge47" class="edge">
<title>g9-&gt;h5</title>
<path fill="none" stroke="#000000" d="M592.4597,-215.8314C598.0651,-207.2444 604.8525,-196.8466 610.9617,-187.4878"/>
<polygon fill="#000000" stroke="#000000" points="614.0151,-189.2133 616.5505,-178.9263 608.1534,-185.3869 614.0151,-189.2133"/>
</g>
<!-- g9&#45;&gt;o1 -->
<g id="edge48" class="edge">
<title>g9-&gt;o1</title>
<path fill="none" stroke="#000000" d="M568.4872,-215.8314C562.7625,-207.2444 555.8307,-196.8466 549.5915,-187.4878"/>
<polygon fill="#000000" stroke="#000000" points="552.343,-185.3053 543.8838,-178.9263 546.5187,-189.1883 552.343,-185.3053"/>
</g>
<!-- g10&#45;&gt;h5 -->
<g id="edge52" class="edge">
<title>g10-&gt;h5</title>
<path fill="none" stroke="#000000" d="M693.3935,-215.8314C681.0303,-205.716 665.596,-193.0879 652.784,-182.6054"/>
<polygon fill="#000000" stroke="#000000" points="654.7579,-179.6982 644.802,-176.0747 650.3252,-185.1159 654.7579,-179.6982"/>
</g>
<!-- g10&#45;&gt;o1 -->
<g id="edge53" class="edge">
<title>g10-&gt;o1</title>
<path fill="none" stroke="#000000" d="M669.421,-215.8314C637.0281,-203.0866 594.4968,-186.353 565.508,-174.9476"/>
<polygon fill="#000000" stroke="#000000" points="566.445,-171.5551 555.8579,-171.1508 563.8821,-178.0691 566.445,-171.5551"/>
</g>
</g>
</svg>